<svg xmlns="http://www.w3.org/2000/svg" width="32" height="32" viewBox="0 0 100 100">
  <rect width="100" height="100" rx="19" fill="#ff8811"/>
  <!-- Arabic letter ج, outline extracted from Arial Bold (no font dependency) -->
  <g transform="translate(21.1 -12.8) scale(0.0985)">
    <path fill="#1f1407" d="M552.7 865.4L562.5 886.9L374 1003.1Q200.2 1003.1 118.2 936.7Q34.2 868.4 34.2 721.9Q34.2 620.8 74.2 543.4Q114.3 466 201.2 404.5Q143.1 404.5 98.6 421.6Q82.5 427.9 25.4 454.3Q48.8 272.7 198.2 272.7Q220.7 272.7 272 277.8Q323.2 282.9 362.3 285.4Q436.5 290.2 508.8 290.2L479.5 410.4Q292.5 433.8 194.1 500.4Q95.7 567.1 95.7 671.1Q95.7 768.8 176.5 820.5Q257.3 872.3 409.2 872.3Q413.1 872.3 482.9 867.9Q521.5 865.4 552.7 865.4M293.5 566.1L407.2 626.7L348.6 736L234.4 676.5"/>
  </g>
</svg>
